<svg width="60" height="60" viewBox="0 0 60 60" fill="none" xmlns="http://www.w3.org/2000/svg">
<path fill-rule="evenodd" clip-rule="evenodd" d="M54 21C54 22.656 52.656 24 51 24H39C37.344 24 36 22.656 36 21V9.003C36 7.344 37.344 6 39 6H51C52.656 6 54 7.344 54 9.003V21ZM48 45.192C48 46.851 46.053 48 44.394 48H32.394H30V36.195C30 32.88 26.709 30 23.394 30H12V27.57V15.195C12 13.539 12.738 12 14.397 12H30V12.57V24.195C30 27.507 32.082 30 35.394 30H48V45.192ZM24 51C24 52.656 22.656 54 21 54H9C7.344 54 6 52.656 6 51V39.003C6 37.344 7.344 36 9 36H21C22.656 36 24 37.344 24 39.003V51ZM54 48.195V30.195C57.315 30.195 60 27.507 60 24.195V6.195C60 2.88 56.709 0 53.394 0H35.394C32.082 0 29.394 2.688 29.394 6H11.394C8.082 6 6 8.88 6 12.195V30.195C2.685 30.195 0 32.88 0 36.195V54.195C0 57.507 2.082 60 5.394 60H23.394C26.709 60 29.394 57.315 29.394 54H47.394C50.709 54 54 51.507 54 48.195Z" fill="white"/>
</svg>
