<svg width="215" height="49" viewBox="0 0 215 49" fill="none" xmlns="http://www.w3.org/2000/svg">
<circle cx="7.47967" cy="40.6374" r="7.47967" fill="#FF9049"/>
<circle cx="37.3976" cy="40.6374" r="7.47967" fill="#315784"/>
<circle cx="67.3156" cy="40.6374" r="7.47967" fill="#C4C4C4"/>
<path d="M62.3692 35.0695C59.2709 37.8018 58.9743 42.5284 61.7066 45.6266C64.4389 48.7248 69.1654 49.0215 72.2637 46.2892L62.3692 35.0695ZM155.764 18.1983L148.595 16.0647V16.0647L155.764 18.1983ZM208.636 25.4968C212.667 24.593 215.202 20.5928 214.298 16.562C213.394 12.5311 209.394 9.99606 205.363 10.8998L208.636 25.4968ZM72.2637 46.2892C83.0511 36.7758 105.935 25.2811 125.439 19.3131C135.315 16.2909 143.12 15.0757 147.576 15.5931C149.84 15.856 149.748 16.3941 149.237 15.7539C148.453 14.7701 149.136 14.2453 148.595 16.0647L162.932 20.3319C164.261 15.8683 164.325 10.6793 160.932 6.42554C157.813 2.51525 153.123 1.17734 149.301 0.733607C141.586 -0.162221 131.264 1.88674 121.062 5.00843C100.409 11.3281 75.3297 23.6398 62.3692 35.0695L72.2637 46.2892ZM148.595 16.0647C147.43 19.9775 146.472 23.3057 145.843 25.9973C145.27 28.4467 144.718 31.3251 145 33.916C145.153 35.3284 145.616 37.3155 147.057 39.1353C148.625 41.1142 150.711 42.1 152.63 42.4606C155.689 43.0357 158.771 42.0772 160.523 41.4967C169.306 38.5877 182.692 31.3134 208.636 25.4968L205.363 10.8998C178.762 16.8637 161.856 25.2967 155.819 27.2961C153.867 27.9428 154.211 27.5365 155.394 27.7588C156.374 27.9431 157.738 28.5262 158.784 29.8474C159.704 31.0095 159.848 32.0839 159.872 32.2999C159.893 32.4978 159.837 31.8482 160.409 29.4045C160.924 27.2029 161.76 24.2727 162.932 20.3319L148.595 16.0647Z" fill="#E56C41"/>
</svg>
