<svg width="154" height="46" viewBox="0 0 154 46" fill="none" xmlns="http://www.w3.org/2000/svg">
<g opacity="0.2">
<path d="M62.345 14H56.795V3.5H62.12C63.1 3.5 63.9 3.73 64.52 4.19C65.15 4.64 65.465 5.305 65.465 6.185C65.465 6.695 65.325 7.12 65.045 7.46C64.755 7.81 64.475 8.05 64.205 8.18C64.665 8.27 65.11 8.57 65.54 9.08C65.98 9.58 66.2 10.205 66.2 10.955C66.2 11.865 65.845 12.6 65.135 13.16C64.425 13.72 63.495 14 62.345 14ZM60.02 9.665V11.405H61.715C62.005 11.405 62.235 11.33 62.405 11.18C62.585 11.02 62.675 10.81 62.675 10.55C62.675 10.29 62.585 10.08 62.405 9.92C62.225 9.75 61.995 9.665 61.715 9.665H60.02ZM60.02 6.005V7.415H61.655C61.875 7.415 62.055 7.35 62.195 7.22C62.345 7.09 62.42 6.93 62.42 6.74C62.42 6.52 62.345 6.345 62.195 6.215C62.055 6.075 61.875 6.005 61.655 6.005H60.02ZM70.8407 10.565C71.2807 11.035 71.8357 11.27 72.5057 11.27C73.1757 11.27 73.7307 11.035 74.1707 10.565C74.6107 10.075 74.8307 9.47 74.8307 8.75C74.8307 8.02 74.6107 7.42 74.1707 6.95C73.7407 6.47 73.1857 6.23 72.5057 6.23C71.8257 6.23 71.2707 6.47 70.8407 6.95C70.4007 7.42 70.1807 8.02 70.1807 8.75C70.1807 9.47 70.4007 10.075 70.8407 10.565ZM68.4707 12.605C67.4107 11.545 66.8807 10.26 66.8807 8.75C66.8807 7.24 67.4107 5.955 68.4707 4.895C69.5407 3.825 70.8857 3.29 72.5057 3.29C74.1157 3.29 75.4557 3.825 76.5257 4.895C77.5857 5.955 78.1157 7.24 78.1157 8.75C78.1157 10.27 77.5857 11.56 76.5257 12.62C75.4657 13.68 74.1257 14.21 72.5057 14.21C70.8857 14.21 69.5407 13.675 68.4707 12.605ZM78.2148 6.275V3.5H87.4398V6.275H84.4248V14H81.1998V6.275H78.2148ZM62.51 29.21C60.79 29.21 59.355 28.705 58.205 27.695C57.065 26.675 56.495 25.36 56.495 23.75C56.495 22.14 57.06 20.83 58.19 19.82C59.31 18.8 60.74 18.29 62.48 18.29C63.52 18.29 64.405 18.475 65.135 18.845V21.89C64.285 21.43 63.43 21.2 62.57 21.2C61.77 21.2 61.11 21.445 60.59 21.935C60.07 22.415 59.81 23.02 59.81 23.75C59.81 24.5 60.08 25.115 60.62 25.595C61.17 26.065 61.86 26.3 62.69 26.3C63.71 26.3 64.575 26.05 65.285 25.55V28.64C64.555 29.02 63.63 29.21 62.51 29.21ZM70.1962 25.565C70.6362 26.035 71.1912 26.27 71.8612 26.27C72.5312 26.27 73.0862 26.035 73.5262 25.565C73.9662 25.075 74.1862 24.47 74.1862 23.75C74.1862 23.02 73.9662 22.42 73.5262 21.95C73.0962 21.47 72.5412 21.23 71.8612 21.23C71.1812 21.23 70.6262 21.47 70.1962 21.95C69.7562 22.42 69.5362 23.02 69.5362 23.75C69.5362 24.47 69.7562 25.075 70.1962 25.565ZM67.8262 27.605C66.7662 26.545 66.2362 25.26 66.2362 23.75C66.2362 22.24 66.7662 20.955 67.8262 19.895C68.8962 18.825 70.2412 18.29 71.8612 18.29C73.4712 18.29 74.8112 18.825 75.8812 19.895C76.9412 20.955 77.4712 22.24 77.4712 23.75C77.4712 25.27 76.9412 26.56 75.8812 27.62C74.8212 28.68 73.4812 29.21 71.8612 29.21C70.2412 29.21 68.8962 28.675 67.8262 27.605ZM81.9023 29H78.7823V18.5H81.9773L84.2723 22.235L86.5823 18.5H89.7623V29H86.6723V23.12L85.1873 25.625H83.4473L81.9023 23.12V29ZM94.4707 29H91.3507V18.5H94.5457L96.8407 22.235L99.1507 18.5H102.331V29H99.2407V23.12L97.7557 25.625H96.0157L94.4707 23.12V29ZM112.244 29H103.919V18.5H112.154V21.275H107.144V22.205H111.074V24.755H107.144V26.225H112.244V29ZM120.55 24.89L123.685 29H119.92L117.13 25.25H116.68V29H113.455V18.5H118.525C119.725 18.5 120.68 18.82 121.39 19.46C122.11 20.09 122.47 20.895 122.47 21.875C122.47 22.535 122.3 23.13 121.96 23.66C121.62 24.18 121.15 24.59 120.55 24.89ZM116.68 22.895H118.15C118.45 22.895 118.69 22.82 118.87 22.67C119.06 22.51 119.155 22.3 119.155 22.04C119.155 21.78 119.06 21.575 118.87 21.425C118.69 21.275 118.45 21.2 118.15 21.2H116.68V22.895ZM129.746 29.21C128.026 29.21 126.591 28.705 125.441 27.695C124.301 26.675 123.731 25.36 123.731 23.75C123.731 22.14 124.296 20.83 125.426 19.82C126.546 18.8 127.976 18.29 129.716 18.29C130.756 18.29 131.641 18.475 132.371 18.845V21.89C131.521 21.43 130.666 21.2 129.806 21.2C129.006 21.2 128.346 21.445 127.826 21.935C127.306 22.415 127.046 23.02 127.046 23.75C127.046 24.5 127.316 25.115 127.856 25.595C128.406 26.065 129.096 26.3 129.926 26.3C130.946 26.3 131.811 26.05 132.521 25.55V28.64C131.791 29.02 130.866 29.21 129.746 29.21ZM142.244 29H133.919V18.5H142.154V21.275H137.144V22.205H141.074V24.755H137.144V26.225H142.244V29Z" fill="#4B5587"/>
<path d="M56.636 34.6H60.5C61.468 34.6 62.236 34.856 62.804 35.368C63.388 35.88 63.68 36.536 63.68 37.336C63.68 38.136 63.388 38.792 62.804 39.304C62.236 39.816 61.468 40.072 60.5 40.072H59.216V43H56.636V34.6ZM59.216 38.2H60.152C60.416 38.2 60.628 38.132 60.788 37.996C60.956 37.852 61.04 37.668 61.04 37.444C61.04 37.22 60.956 37.04 60.788 36.904C60.62 36.768 60.408 36.7 60.152 36.7H59.216V38.2ZM66.2764 43.156C65.0364 43.156 64.4164 42.528 64.4164 41.272V34.6H66.9364V40.708C66.9364 40.82 66.9684 40.904 67.0324 40.96C67.0964 41.016 67.1724 41.044 67.2604 41.044C67.3644 41.044 67.4644 41.024 67.5604 40.984V42.916C67.2244 43.076 66.7964 43.156 66.2764 43.156ZM74.6954 41.152C74.8234 41.152 74.9394 41.116 75.0434 41.044V42.784C74.7474 43.032 74.3314 43.156 73.7954 43.156C73.4354 43.156 73.1034 43.076 72.7994 42.916C72.4954 42.756 72.2914 42.564 72.1874 42.34C72.0194 42.58 71.7714 42.776 71.4434 42.928C71.1154 43.08 70.7514 43.156 70.3514 43.156C69.6634 43.156 69.1234 42.964 68.7314 42.58C68.3314 42.18 68.1314 41.688 68.1314 41.104C68.1314 40.448 68.3714 39.956 68.8514 39.628C69.3474 39.3 69.8994 39.136 70.5074 39.136C71.0434 39.136 71.5074 39.248 71.8994 39.472C71.8994 38.856 71.4874 38.548 70.6634 38.548C69.9914 38.548 69.3994 38.68 68.8874 38.944V37.06C69.5514 36.788 70.3394 36.652 71.2514 36.652C72.1794 36.652 72.9354 36.888 73.5194 37.36C74.0954 37.824 74.3834 38.44 74.3834 39.208V40.864C74.3834 41.056 74.4874 41.152 74.6954 41.152ZM71.9354 41.212V40.564C71.7674 40.42 71.5594 40.348 71.3114 40.348C71.0954 40.348 70.9154 40.4 70.7714 40.504C70.6354 40.608 70.5674 40.756 70.5674 40.948C70.5674 41.132 70.6314 41.28 70.7594 41.392C70.8874 41.504 71.0514 41.56 71.2514 41.56C71.5714 41.56 71.7994 41.444 71.9354 41.212ZM76.193 41.152V38.776H75.221V36.808H76.193V35.32H78.713V36.808H80.117V38.776H78.713V40.372C78.713 40.596 78.761 40.76 78.857 40.864C78.953 40.96 79.117 41.008 79.349 41.008C79.621 41.008 79.885 40.94 80.141 40.804V42.772C79.717 43.028 79.161 43.156 78.473 43.156C77.793 43.156 77.241 42.98 76.817 42.628C76.401 42.276 76.193 41.784 76.193 41.152ZM84.1039 38.776V43H81.5719V38.776H80.5999V36.808H81.5719V36.64C81.5719 35.968 81.7879 35.432 82.2199 35.032C82.6519 34.632 83.2679 34.432 84.0679 34.432C84.7239 34.432 85.3039 34.52 85.8079 34.696V36.364C85.4879 36.26 85.1679 36.208 84.8479 36.208C84.3519 36.208 84.1039 36.408 84.1039 36.808H85.8079V38.776H84.1039ZM88.6646 39.904C88.6646 40.232 88.7646 40.5 88.9646 40.708C89.1646 40.916 89.4206 41.02 89.7326 41.02C90.0446 41.02 90.3006 40.916 90.5006 40.708C90.7006 40.5 90.8006 40.232 90.8006 39.904C90.8006 39.576 90.7006 39.312 90.5006 39.112C90.3006 38.896 90.0446 38.788 89.7326 38.788C89.4206 38.788 89.1646 38.896 88.9646 39.112C88.7646 39.312 88.6646 39.576 88.6646 39.904ZM89.7326 43.156C88.7246 43.156 87.8806 42.848 87.2006 42.232C86.5366 41.616 86.2046 40.84 86.2046 39.904C86.2046 38.968 86.5366 38.192 87.2006 37.576C87.8806 36.96 88.7246 36.652 89.7326 36.652C90.7566 36.652 91.6006 36.96 92.2646 37.576C92.9366 38.184 93.2726 38.96 93.2726 39.904C93.2726 40.848 92.9366 41.624 92.2646 42.232C91.6006 42.848 90.7566 43.156 89.7326 43.156ZM96.6083 43H94.0883V36.808H96.6083V37.792C96.7283 37.536 96.9723 37.284 97.3403 37.036C97.7163 36.78 98.1163 36.652 98.5403 36.652C98.6763 36.652 98.7883 36.664 98.8763 36.688V39.064C98.6043 39 98.3523 38.968 98.1203 38.968C97.4483 38.968 96.9443 39.148 96.6083 39.508V43ZM102.28 43H99.7602V36.808H102.28V37.612C102.432 37.356 102.676 37.132 103.012 36.94C103.348 36.748 103.7 36.652 104.068 36.652C104.844 36.652 105.396 36.984 105.724 37.648C105.892 37.36 106.156 37.124 106.516 36.94C106.884 36.748 107.272 36.652 107.68 36.652C108.28 36.652 108.792 36.864 109.216 37.288C109.632 37.704 109.84 38.32 109.84 39.136V43H107.308V39.604C107.308 39.1 107.124 38.848 106.756 38.848C106.46 38.848 106.232 38.968 106.072 39.208V43H103.54V39.604C103.54 39.1 103.356 38.848 102.988 38.848C102.7 38.848 102.464 38.976 102.28 39.232V43Z" fill="#4B5587"/>
<rect width="46" height="46" rx="16" fill="#4B5587"/>
<g filter="url(#filter0_d)">
<path d="M17.72 13.9817C18.3115 13.456 19.0219 13.0784 19.6727 12.6282C20.3572 12.1548 21.0663 11.746 21.8 11.4017C22.8933 10.8817 23.9667 10.5084 25.02 10.2817C26.0867 10.0417 27.0933 9.95507 28.04 10.0217C29 10.0751 29.84 10.2751 30.56 10.6217C31.28 10.9551 31.84 11.4417 32.24 12.0817C32.6533 12.7217 32.84 13.5017 32.8 14.4217C32.7467 15.4351 32.5333 16.3551 32.16 17.1817C31.8 17.9951 31.36 18.7284 30.84 19.3817C30.3333 20.0217 29.78 20.5817 29.18 21.0617C28.58 21.5417 28.02 21.9417 27.5 22.2617C26.98 22.5684 26.5333 22.8084 26.16 22.9817C26.0586 23.0268 25.9693 23.0661 25.8922 23.0995C25.8416 23.1215 25.8648 23.2417 25.92 23.2417C26.16 23.2417 26.4533 23.2684 26.8 23.3217C27.16 23.3617 27.54 23.4551 27.94 23.6017C28.3533 23.7351 28.7267 23.9417 29.06 24.2217C29.4067 24.4884 29.68 24.8417 29.88 25.2817C30.0933 25.7217 30.1867 26.2751 30.16 26.9417C30.12 27.8084 29.9067 28.6084 29.52 29.3417C29.1467 30.0617 28.6667 30.7084 28.08 31.2817C27.5067 31.8684 26.86 32.3751 26.14 32.8017C25.4333 33.2417 24.7267 33.6017 24.02 33.8817C23.3133 34.1751 22.64 34.3884 22 34.5217C21.3733 34.6684 20.8533 34.7351 20.44 34.7217C19.48 34.6951 18.6467 34.5884 17.94 34.4017C17.2467 34.2284 16.66 34.0151 16.18 33.7617C15.7 33.5084 15.3067 33.2351 15 32.9417C14.7067 32.6484 14.4733 32.3684 14.3 32.1017C14.14 31.8484 14.02 31.6284 13.94 31.4417C13.86 31.2551 13.8067 31.1417 13.78 31.1017C13.7267 31.0351 13.6467 30.9084 13.54 30.7217C13.4467 30.5484 13.3533 30.3217 13.26 30.0417C13.1667 29.7617 13.0933 29.4484 13.04 29.1017C12.9867 28.7417 12.9867 28.3484 13.04 27.9217C13.0667 27.6951 13.16 27.4951 13.32 27.3217C13.4933 27.1484 13.68 27.0284 13.88 26.9617C14.08 26.8951 14.2733 26.8884 14.46 26.9417C14.6467 26.9951 14.7733 27.1284 14.84 27.3417C14.9067 27.5551 14.9467 27.8284 14.96 28.1617C14.9867 28.4817 15 28.8151 15 29.1617C15.0133 29.4951 15.0133 29.8084 15 30.1017C15 30.3951 15.0133 30.6151 15.04 30.7617C15.0533 30.8684 15.0733 31.0084 15.1 31.1817C15.14 31.3684 15.2133 31.5684 15.32 31.7817C15.44 32.0084 15.6067 32.2351 15.82 32.4617C16.0333 32.6884 16.3267 32.8951 16.7 33.0817C17.0733 33.2684 17.5333 33.4217 18.08 33.5417C18.64 33.6751 19.32 33.7484 20.12 33.7617C20.7867 33.7751 21.46 33.6817 22.14 33.4817C22.82 33.2951 23.4667 33.0351 24.08 32.7017C24.7067 32.3684 25.2933 31.9817 25.84 31.5417C26.3867 31.1017 26.8733 30.6351 27.3 30.1417C27.7267 29.6617 28.0733 29.1751 28.34 28.6817C28.6067 28.1751 28.7733 27.6884 28.84 27.2217C28.9333 26.5817 28.86 26.0551 28.62 25.6417C28.38 25.2151 28.0333 24.8817 27.58 24.6417C27.1267 24.4017 26.5933 24.2351 25.98 24.1417C25.3667 24.0351 24.72 23.9884 24.04 24.0017C23.3733 24.0017 22.7067 24.0351 22.04 24.1017C20.8915 24.2166 19.9188 24.9854 19.5209 26.0688C19.4704 26.2061 19.4235 26.3371 19.38 26.4617C19.18 27.0351 19.0733 27.3551 19.06 27.4217C19.0333 27.5684 18.9667 27.6951 18.86 27.8017C18.7533 27.8951 18.64 27.9551 18.52 27.9817C18.4 27.9951 18.28 27.9551 18.16 27.8617C18.04 27.7684 17.96 27.6017 17.92 27.3617C17.88 27.1084 17.9333 26.7417 18.08 26.2617C18.1723 25.9773 18.2823 25.6751 18.41 25.3551C18.5335 25.0457 18.2664 24.7148 17.94 24.7817C17.5533 24.8617 17.2933 24.7951 17.16 24.5817C17.0267 24.3684 17.0067 24.1351 17.1 23.8817C17.2067 23.6151 17.4133 23.3884 17.72 23.2017C17.9749 23.0466 18.2943 22.9974 18.6781 23.0541C18.8328 23.0769 18.8843 23.1192 19.0406 23.1216C19.2257 23.1244 19.5112 23.0011 19.596 22.8366C19.8724 22.3001 20.1537 21.7684 20.44 21.2417C20.7733 20.6151 21.08 20.0484 21.36 19.5417C21.6533 19.0351 21.8933 18.6151 22.08 18.2817C22.2667 17.9484 22.3667 17.7551 22.38 17.7017C22.4067 17.6084 22.46 17.4617 22.54 17.2617C22.6333 17.0617 22.7533 16.8617 22.9 16.6617C23.0467 16.4484 23.2133 16.2617 23.4 16.1017C23.6 15.9284 23.82 15.8284 24.06 15.8017C24.4467 15.8017 24.6933 15.8684 24.8 16.0017C24.9067 16.1351 24.94 16.2884 24.9 16.4617C24.8733 16.6351 24.8 16.8084 24.68 16.9817C24.5733 17.1417 24.4867 17.2551 24.42 17.3217C24.06 17.6684 23.7133 18.0617 23.38 18.5017C23.0467 18.9417 22.7267 19.4084 22.42 19.9017C22.1267 20.3951 21.84 20.9017 21.56 21.4217C21.2242 22.0765 21.77 22.8105 22.4912 22.6645C22.5601 22.6506 22.6297 22.6363 22.7 22.6217C23.42 22.4617 24.1533 22.2417 24.9 21.9617C25.66 21.6684 26.4067 21.3084 27.14 20.8817C27.8867 20.4551 28.56 19.9351 29.16 19.3217C29.7733 18.7084 30.2933 17.9951 30.72 17.1817C31.1467 16.3551 31.42 15.4084 31.54 14.3417C31.62 13.6617 31.4667 13.0884 31.08 12.6217C30.7067 12.1417 30.1867 11.7751 29.52 11.5217C28.8667 11.2684 28.1067 11.1284 27.24 11.1017C26.3867 11.0751 25.52 11.1751 24.64 11.4017C23.76 11.6151 22.9067 11.9617 22.08 12.4417C21.2667 12.9217 20.5667 13.5351 19.98 14.2817C19.3667 15.0817 18.8333 15.5884 18.38 15.8017C17.9267 16.0017 17.56 15.9284 17.28 15.5817C17.1733 15.4617 17.1067 15.3151 17.08 15.1417C17.0667 14.9684 17.1067 14.7884 17.2 14.6017C17.3067 14.4017 17.48 14.1951 17.72 13.9817Z" fill="#4B5587"/>
<path d="M17.72 13.9817C18.3115 13.456 19.0219 13.0784 19.6727 12.6282C20.3572 12.1548 21.0663 11.746 21.8 11.4017C22.8933 10.8817 23.9667 10.5084 25.02 10.2817C26.0867 10.0417 27.0933 9.95507 28.04 10.0217C29 10.0751 29.84 10.2751 30.56 10.6217C31.28 10.9551 31.84 11.4417 32.24 12.0817C32.6533 12.7217 32.84 13.5017 32.8 14.4217C32.7467 15.4351 32.5333 16.3551 32.16 17.1817C31.8 17.9951 31.36 18.7284 30.84 19.3817C30.3333 20.0217 29.78 20.5817 29.18 21.0617C28.58 21.5417 28.02 21.9417 27.5 22.2617C26.98 22.5684 26.5333 22.8084 26.16 22.9817C26.0586 23.0268 25.9693 23.0661 25.8922 23.0995C25.8416 23.1215 25.8648 23.2417 25.92 23.2417C26.16 23.2417 26.4533 23.2684 26.8 23.3217C27.16 23.3617 27.54 23.4551 27.94 23.6017C28.3533 23.7351 28.7267 23.9417 29.06 24.2217C29.4067 24.4884 29.68 24.8417 29.88 25.2817C30.0933 25.7217 30.1867 26.2751 30.16 26.9417C30.12 27.8084 29.9067 28.6084 29.52 29.3417C29.1467 30.0617 28.6667 30.7084 28.08 31.2817C27.5067 31.8684 26.86 32.3751 26.14 32.8017C25.4333 33.2417 24.7267 33.6017 24.02 33.8817C23.3133 34.1751 22.64 34.3884 22 34.5217C21.3733 34.6684 20.8533 34.7351 20.44 34.7217C19.48 34.6951 18.6467 34.5884 17.94 34.4017C17.2467 34.2284 16.66 34.0151 16.18 33.7617C15.7 33.5084 15.3067 33.2351 15 32.9417C14.7067 32.6484 14.4733 32.3684 14.3 32.1017C14.14 31.8484 14.02 31.6284 13.94 31.4417C13.86 31.2551 13.8067 31.1417 13.78 31.1017C13.7267 31.0351 13.6467 30.9084 13.54 30.7217C13.4467 30.5484 13.3533 30.3217 13.26 30.0417C13.1667 29.7617 13.0933 29.4484 13.04 29.1017C12.9867 28.7417 12.9867 28.3484 13.04 27.9217C13.0667 27.6951 13.16 27.4951 13.32 27.3217C13.4933 27.1484 13.68 27.0284 13.88 26.9617C14.08 26.8951 14.2733 26.8884 14.46 26.9417C14.6467 26.9951 14.7733 27.1284 14.84 27.3417C14.9067 27.5551 14.9467 27.8284 14.96 28.1617C14.9867 28.4817 15 28.8151 15 29.1617C15.0133 29.4951 15.0133 29.8084 15 30.1017C15 30.3951 15.0133 30.6151 15.04 30.7617C15.0533 30.8684 15.0733 31.0084 15.1 31.1817C15.14 31.3684 15.2133 31.5684 15.32 31.7817C15.44 32.0084 15.6067 32.2351 15.82 32.4617C16.0333 32.6884 16.3267 32.8951 16.7 33.0817C17.0733 33.2684 17.5333 33.4217 18.08 33.5417C18.64 33.6751 19.32 33.7484 20.12 33.7617C20.7867 33.7751 21.46 33.6817 22.14 33.4817C22.82 33.2951 23.4667 33.0351 24.08 32.7017C24.7067 32.3684 25.2933 31.9817 25.84 31.5417C26.3867 31.1017 26.8733 30.6351 27.3 30.1417C27.7267 29.6617 28.0733 29.1751 28.34 28.6817C28.6067 28.1751 28.7733 27.6884 28.84 27.2217C28.9333 26.5817 28.86 26.0551 28.62 25.6417C28.38 25.2151 28.0333 24.8817 27.58 24.6417C27.1267 24.4017 26.5933 24.2351 25.98 24.1417C25.3667 24.0351 24.72 23.9884 24.04 24.0017C23.3733 24.0017 22.7067 24.0351 22.04 24.1017C20.8915 24.2166 19.9188 24.9854 19.5209 26.0688C19.4704 26.2061 19.4235 26.3371 19.38 26.4617C19.18 27.0351 19.0733 27.3551 19.06 27.4217C19.0333 27.5684 18.9667 27.6951 18.86 27.8017C18.7533 27.8951 18.64 27.9551 18.52 27.9817C18.4 27.9951 18.28 27.9551 18.16 27.8617C18.04 27.7684 17.96 27.6017 17.92 27.3617C17.88 27.1084 17.9333 26.7417 18.08 26.2617C18.1723 25.9773 18.2823 25.6751 18.41 25.3551C18.5335 25.0457 18.2664 24.7148 17.94 24.7817C17.5533 24.8617 17.2933 24.7951 17.16 24.5817C17.0267 24.3684 17.0067 24.1351 17.1 23.8817C17.2067 23.6151 17.4133 23.3884 17.72 23.2017C17.9749 23.0466 18.2943 22.9974 18.6781 23.0541C18.8328 23.0769 18.8843 23.1192 19.0406 23.1216C19.2257 23.1244 19.5112 23.0011 19.596 22.8366C19.8724 22.3001 20.1537 21.7684 20.44 21.2417C20.7733 20.6151 21.08 20.0484 21.36 19.5417C21.6533 19.0351 21.8933 18.6151 22.08 18.2817C22.2667 17.9484 22.3667 17.7551 22.38 17.7017C22.4067 17.6084 22.46 17.4617 22.54 17.2617C22.6333 17.0617 22.7533 16.8617 22.9 16.6617C23.0467 16.4484 23.2133 16.2617 23.4 16.1017C23.6 15.9284 23.82 15.8284 24.06 15.8017C24.4467 15.8017 24.6933 15.8684 24.8 16.0017C24.9067 16.1351 24.94 16.2884 24.9 16.4617C24.8733 16.6351 24.8 16.8084 24.68 16.9817C24.5733 17.1417 24.4867 17.2551 24.42 17.3217C24.06 17.6684 23.7133 18.0617 23.38 18.5017C23.0467 18.9417 22.7267 19.4084 22.42 19.9017C22.1267 20.3951 21.84 20.9017 21.56 21.4217C21.2242 22.0765 21.77 22.8105 22.4912 22.6645C22.5601 22.6506 22.6297 22.6363 22.7 22.6217C23.42 22.4617 24.1533 22.2417 24.9 21.9617C25.66 21.6684 26.4067 21.3084 27.14 20.8817C27.8867 20.4551 28.56 19.9351 29.16 19.3217C29.7733 18.7084 30.2933 17.9951 30.72 17.1817C31.1467 16.3551 31.42 15.4084 31.54 14.3417C31.62 13.6617 31.4667 13.0884 31.08 12.6217C30.7067 12.1417 30.1867 11.7751 29.52 11.5217C28.8667 11.2684 28.1067 11.1284 27.24 11.1017C26.3867 11.0751 25.52 11.1751 24.64 11.4017C23.76 11.6151 22.9067 11.9617 22.08 12.4417C21.2667 12.9217 20.5667 13.5351 19.98 14.2817C19.3667 15.0817 18.8333 15.5884 18.38 15.8017C17.9267 16.0017 17.56 15.9284 17.28 15.5817C17.1733 15.4617 17.1067 15.3151 17.08 15.1417C17.0667 14.9684 17.1067 14.7884 17.2 14.6017C17.3067 14.4017 17.48 14.1951 17.72 13.9817Z" stroke="white" stroke-width="2" stroke-linecap="round" stroke-linejoin="round"/>
</g>
</g>
<defs>
<filter id="filter0_d" x="10" y="9" width="25.8053" height="30.7234" filterUnits="userSpaceOnUse" color-interpolation-filters="sRGB">
<feFlood flood-opacity="0" result="BackgroundImageFix"/>
<feColorMatrix in="SourceAlpha" type="matrix" values="0 0 0 0 0 0 0 0 0 0 0 0 0 0 0 0 0 0 127 0"/>
<feOffset dy="2"/>
<feGaussianBlur stdDeviation="1"/>
<feColorMatrix type="matrix" values="0 0 0 0 0 0 0 0 0 0 0 0 0 0 0 0 0 0 0.25 0"/>
<feBlend mode="normal" in2="BackgroundImageFix" result="effect1_dropShadow"/>
<feBlend mode="normal" in="SourceGraphic" in2="effect1_dropShadow" result="shape"/>
</filter>
</defs>
</svg>
