<svg width="134" height="50" viewBox="0 0 134 50" fill="none" xmlns="http://www.w3.org/2000/svg">
<path d="M71.3293 16.6171C70.0276 16.2099 68.7259 15.8027 67.3772 15.3798C67.5652 15.004 67.8791 15.0509 68.1298 15.0196C81.2411 12.9679 94.3208 10.9162 107.416 8.88023C109.408 8.56696 111.4 8.30074 113.391 8.0658C113.956 8.00314 114.756 7.79955 114.913 8.59831C115.085 9.49102 114.207 9.47536 113.627 9.63198C104.593 11.9656 95.5597 14.2992 86.5419 16.6171C85.7106 16.8364 84.8638 16.9617 84.0325 17.3532C84.2992 17.6351 84.597 17.5725 84.8482 17.5881C94.1794 18.3869 103.433 19.7495 112.592 21.6759C117.673 22.7565 122.723 24.0094 127.742 25.372C128.588 25.607 129.012 25.9828 129.278 26.8756C130.612 31.4645 132.023 36.022 133.45 40.5796C133.654 41.2218 133.497 41.5665 132.98 41.9422C129.373 44.5262 125.765 47.1262 122.174 49.7418C121.766 50.0394 121.39 50.0549 120.919 49.9139C113.25 47.7214 105.519 45.8262 97.6927 44.3227C82.1662 41.347 66.5615 40.376 50.7998 41.9892C38.2847 43.2733 26.0519 45.9673 13.9445 49.3031C13.5681 49.4127 13.1604 49.4442 12.8154 49.6163C11.545 50.2585 10.6197 49.7888 9.6003 48.9585C6.63619 46.5625 3.59365 44.2601 0.566801 41.9577C0.0649401 41.5665 -0.107574 41.2218 0.0649401 40.5796C1.28822 35.8811 2.48015 31.1825 3.65638 26.4684C3.79753 25.9202 4.04848 25.6383 4.59737 25.4817C12.7213 23.242 20.9079 21.3783 29.2199 19.9687C37.5005 18.5748 45.8283 17.6351 54.2188 17.1496C54.4855 17.134 54.8776 17.2593 55.003 16.9617C55.1599 16.6328 54.799 16.4135 54.5953 16.1942C52.5566 13.9546 49.9373 12.9209 47.0202 12.4511C45.8598 12.2632 44.6991 12.1379 43.5073 12.0752C42.1273 11.9969 40.951 12.4041 39.9317 13.3595C38.8337 14.3775 37.6418 15.2702 36.1519 15.6461C32.4193 16.6014 29.4238 15.3798 27.0086 12.5137C26.3656 11.762 25.8167 10.9319 25.3932 10.0235C24.6875 8.48867 23.5583 7.39234 22.0527 6.64059C20.5001 5.85748 19.167 4.83948 18.7279 3.02272C18.5397 2.28661 18.4613 1.53485 18.6181 0.767425C18.6809 0.454191 18.7279 0 19.1513 0C19.5591 0 19.6532 0.407207 19.7316 0.736103C19.8571 1.34691 19.9512 1.97338 20.2335 2.5372C20.4687 3.03838 20.751 3.49257 21.096 3.93111C21.8802 4.9178 22.8683 5.32501 24.1229 5.16836C25.7069 4.98043 27.1654 4.41661 28.5926 3.7745C30.6314 2.85044 32.7486 2.52154 34.9443 3.02272C37.328 3.57088 38.9906 5.09007 40.2922 7.07911C40.4803 7.36102 40.6688 7.64294 40.8568 7.92485C42.3781 10.1958 44.3697 11.2295 47.0988 10.2428C48.1964 9.85122 49.2629 9.86692 50.2511 10.5403C53.5915 12.827 57.481 13.6257 61.2921 14.6281C63.8954 15.3172 66.4988 15.975 69.1021 16.6484C69.8392 16.8834 70.5607 16.9617 71.3293 16.6171ZM109.345 45.3406C109.565 45.3095 109.878 45.2939 110.176 45.2469C110.333 45.231 110.506 45.1999 110.568 45.0274C110.663 44.7928 110.443 44.7143 110.302 44.6047C109.973 44.3541 109.627 44.1191 109.298 43.8685C107.745 42.6784 107.15 40.9083 106.946 39.1545C106.789 37.776 106.271 36.6015 105.864 35.3486C105.738 34.9727 105.675 34.5655 105.456 34.2523C105.111 33.7667 105.268 33.6884 105.754 33.5945C107.338 33.2969 108.545 32.4668 109.172 30.9319C109.377 30.4464 109.628 29.9923 110.066 29.6633C110.271 29.5067 110.427 29.3345 110.223 29.0839C109.769 28.5357 109.753 27.8779 109.722 27.2358C109.627 25.7166 108.843 24.589 107.526 23.9312C105.55 22.9445 103.417 22.5373 101.221 22.6312C100.547 22.6626 99.9982 22.6782 99.4491 22.1927C99.0099 21.8168 98.4138 21.7385 97.8337 21.6602C97.3945 21.6132 97.1593 21.7228 97.3477 22.224C97.6612 23.0541 97.5829 23.9155 97.4416 24.7769C97.2064 26.1394 96.9712 27.502 96.7672 28.8646C96.6733 29.4598 96.5008 29.9923 96.0301 30.3681C95.7478 30.6031 95.638 30.8223 95.8576 31.1669C96.2026 31.7151 96.1714 32.3102 96.0772 32.9053C95.7793 34.6595 95.4811 36.3979 95.1676 38.1521C95.0734 38.7159 94.948 39.2952 94.5875 39.7494C94.1327 40.2976 94.399 40.5011 94.9325 40.5171C96.0928 40.5326 97.2379 40.6266 98.2884 41.2218C98.4609 41.3159 98.6965 41.2844 98.9001 41.2844C99.2451 41.2844 99.402 41.1434 99.2611 40.7988C99.0882 40.376 99.0099 39.9374 99.0882 39.4988C99.3705 37.6665 99.6843 35.8497 99.9822 34.0173C100.061 33.5161 100.359 33.5162 100.719 33.7198C101.3 34.0486 101.645 34.5498 101.802 35.1919C101.99 36.022 102.445 36.8521 102.257 37.7135C102.037 38.7003 103.135 39.0916 103.103 40C103.087 40.5482 103.37 41.1123 103.511 41.6601C103.778 42.8035 104.515 43.5868 105.472 44.1975C106.616 44.9493 107.902 45.2625 109.345 45.3406ZM48.2591 20.6735C47.0673 20.6735 47.0202 20.7361 47.4749 21.6289C47.7261 22.13 47.7732 22.6782 47.8043 23.2264C47.883 24.7612 47.9301 26.2961 48.0395 27.8309C48.0866 28.5827 47.9928 29.2405 47.3967 29.7417C47.0988 29.9923 47.0517 30.2272 47.4282 30.4778C48.024 30.885 48.1809 31.4958 48.2124 32.1849C48.2751 33.7981 48.3534 35.4112 48.4316 37.0243C48.4632 37.5725 48.4476 38.1207 48.2124 38.6374C47.8515 39.4207 47.9142 39.5147 48.7926 39.4988C49.0593 39.4988 49.3571 39.5147 49.5608 39.4051C50.3294 38.982 51.0665 38.9195 51.8663 39.3422C52.1486 39.4988 52.5878 39.3736 52.9487 39.3422C53.2937 39.2952 53.4035 39.0916 53.1679 38.8099C52.7918 38.3713 52.6504 37.8386 52.6193 37.2908C52.5406 36.022 52.4624 34.7378 52.4153 33.4692C52.3841 32.3572 52.6033 32.1379 53.6858 32.0439C54.7834 31.9343 55.8655 31.8404 56.9479 31.6211C59.9274 30.9946 60.555 28.4574 61.4802 26.1551C61.7625 25.4504 60.8214 25.2311 60.8058 24.6203C60.8058 24.448 60.7116 24.2757 60.6648 24.0878C60.2727 22.7408 59.4885 21.7072 58.2025 21.112C55.9753 20.0784 53.6387 20.3446 51.3488 20.7518C50.4707 20.9085 49.6866 21.3313 48.8237 20.7518C48.6512 20.6422 48.3689 20.6892 48.2591 20.6735ZM65.3381 19.8591C64.3187 19.8434 64.256 19.9218 64.6169 20.6579C64.8206 21.0964 64.8833 21.5506 64.8833 22.0204C64.8521 23.7902 64.8206 25.5756 64.7894 27.3454C64.7894 27.9562 64.5542 28.4731 64.0679 28.8333C63.7229 29.0839 63.6131 29.3031 63.9897 29.6164C64.5383 30.0706 64.6796 30.6814 64.6481 31.3705C64.5698 33.0933 64.5383 34.8161 64.4912 36.5389C64.4756 36.9931 64.3973 37.4159 64.1621 37.8075C63.7385 38.5434 63.8168 38.6533 64.7108 38.7159C65.354 38.7629 65.9186 38.4808 66.5143 38.3243C67.0949 38.1677 67.6124 38.9665 68.3179 38.888C68.365 38.888 68.4277 38.888 68.4748 38.888C69.2434 38.888 69.3217 38.7784 68.9611 38.1207C68.8198 37.8701 68.6944 37.6039 68.6944 37.3063C68.71 35.7401 68.71 34.1739 68.7571 32.6078C68.7727 31.9656 69.1336 31.6211 69.808 31.6054C70.7491 31.5898 71.6898 31.5898 72.6309 31.5114C75.0618 31.2922 76.7871 30.1019 77.5868 27.7213C77.7437 27.2358 77.8691 26.7033 78.2768 26.3274C78.4964 26.1238 78.4493 25.9202 78.2612 25.7166C77.8535 25.2467 77.7278 24.6516 77.6024 24.0565C77.3357 22.7722 76.6773 21.7385 75.5166 21.0807C73.2738 19.8121 70.843 19.8904 68.4277 20.2037C67.6279 20.3133 66.938 20.5639 66.2009 20.0314C65.9342 19.8591 65.495 19.8904 65.3381 19.8591ZM11.1843 32.1066C11.1686 31.2295 11.3254 30.6344 11.7332 30.4464C12.3919 30.1332 13.1917 30.2428 13.8347 29.8043C13.8975 29.7573 14.0857 29.8513 14.1954 29.9139C14.8071 30.2742 15.1678 30.7753 15.1208 31.5114C15.0581 32.4355 15.1992 32.5608 16.0618 32.1692C16.9243 31.7777 17.7398 31.3705 18.7279 31.6211C18.9161 31.668 19.1513 31.5898 19.3395 31.5114C19.7002 31.3861 19.9669 31.1982 19.5905 30.791C19.2611 30.4465 19.1043 29.9923 18.9475 29.5537C18.1319 27.3767 16.4852 26.2334 14.1484 26.2178C13.474 26.2178 12.784 26.2647 12.141 25.9672C11.9214 25.8732 11.7332 25.8889 11.6077 26.1081C11.2941 26.672 10.7138 26.8756 10.1806 27.1575C7.98493 28.3321 6.9969 30.1645 7.15374 32.6234C7.20077 33.3752 7.35761 34.127 7.49876 34.8631C7.6399 35.6305 7.68694 36.3823 7.21646 37.0557C6.98121 37.3844 7.13805 37.5569 7.40465 37.745C8.04765 38.1677 8.36133 38.8254 8.53386 39.5617C8.73773 40.423 8.9573 41.2844 9.31801 42.0987C10.259 44.2916 11.9528 45.3876 14.3366 45.4035C14.9796 45.4035 15.6383 45.2939 16.2656 45.5756C16.4852 45.6852 16.6734 45.5756 16.8145 45.4035C17.1596 44.9963 17.6458 44.7768 18.1162 44.5422C20.406 43.3832 21.4254 41.535 21.2059 38.982C21.1588 38.3868 21.0647 37.8075 21.4254 37.2438C21.6606 36.8834 21.347 36.7895 21.049 36.8208C20.4687 36.8834 19.8728 36.9931 19.465 37.4159C19.0729 37.8231 18.7122 37.8545 18.2104 37.6979C17.7242 37.5569 17.2223 37.6039 16.7518 37.792C16.3284 37.9485 16.0931 38.1521 16.5636 38.5593C17.1753 39.0916 17.2066 39.7808 17.0028 40.5011C16.8459 41.0964 16.5479 41.5195 15.8265 41.2529C15.6383 41.1904 15.4971 41.1904 15.3247 41.3159C14.4621 42.0047 13.8347 41.8952 13.3015 40.8928C12.7369 39.8434 12.5958 38.6689 12.3919 37.5099C12.2978 36.9304 12.9565 36.5232 12.8781 36.1003C12.784 35.6305 11.9684 35.5365 11.8116 34.957C11.5293 33.9703 11.2941 32.9523 11.1843 32.1066ZM122.033 32.1849C122.033 32.4042 121.876 33.0619 122.472 32.6704C123.648 31.9186 124.856 31.3392 126.22 31.0259C126.503 30.9633 126.565 30.7753 126.299 30.5247C124.652 29.0212 123.052 27.4551 121.045 26.4057C120.841 26.2961 120.668 26.2491 120.465 26.3274C119.868 26.5467 119.226 26.531 118.614 26.5937C116.45 26.7659 114.803 27.737 114.05 29.8357C113.266 31.997 113.533 34.0017 115.274 35.6618C115.807 36.163 116.34 36.6485 116.967 37.0557C117.281 37.2593 117.563 37.5099 117.547 37.9326C117.532 38.4027 117.799 38.4808 118.206 38.4808C118.834 38.4653 119.367 38.7473 119.837 39.1545C120.512 39.7494 120.59 40.8147 120.025 41.5665C119.445 42.3649 118.708 42.5059 117.814 42.0362C117.704 41.9736 117.579 41.9422 117.453 41.9422C116.073 41.9422 114.929 40.7677 114.913 39.3892C114.913 39.1545 115.132 38.8254 114.834 38.6844C114.552 38.5434 114.175 38.7314 114.066 38.935C113.391 40.1099 112.184 40.1724 111.086 40.4856C110.992 40.5171 110.898 40.5641 110.804 40.6111C110.286 40.8458 110.114 41.0964 110.725 41.441C111.4 41.8171 111.917 42.3493 112.356 42.9916C112.952 43.8529 113.752 44.4637 114.693 44.9023C115.305 45.184 115.948 45.4505 116.418 45.9673C116.544 46.1083 116.716 46.2179 116.905 46.1083C117.673 45.6071 118.536 45.8577 119.351 45.7481C121.688 45.4346 123.335 44.2601 124.072 41.9736C124.824 39.6868 124.229 37.5255 122.456 36.0064C122.08 35.6775 121.656 35.3799 121.5 34.8787C121.359 34.3932 121.092 34.2992 120.606 34.2523C119.288 34.1113 118.237 33.4378 117.642 32.2319C117.312 31.5898 117.547 30.744 118.096 30.3212C118.614 29.8983 119.163 29.773 119.696 30.3368C119.837 30.4934 120.025 30.4308 120.213 30.3994C121.186 30.2115 122.127 31.0729 122.033 32.1849ZM90.7608 36.6015C89.3178 36.4919 87.7338 36.3666 86.1498 36.2256C85.3812 36.1473 85.0363 35.7558 85.0518 34.9727C85.0678 34.3462 85.146 33.7198 85.2087 33.109C85.3501 31.6994 85.6791 31.4958 87.0438 32.0439C87.2163 32.1066 87.3732 32.2006 87.5298 32.2945C88.2042 32.7174 88.4082 32.6704 88.3611 31.8717C88.314 30.7127 88.1571 29.5851 88.8159 28.5357C88.8474 28.4731 88.8474 28.3791 88.8314 28.3008C88.8159 28.0659 88.863 27.7996 88.6122 27.6743C88.3767 27.5647 88.2201 27.7683 88.0788 27.9092C87.5457 28.3947 86.9025 28.4261 86.2441 28.3947C85.7733 28.3791 85.6008 28.1442 85.6635 27.6743C85.7422 27.0322 85.8049 26.3744 85.8675 25.7323C85.9302 25.0118 86.3694 24.5889 87.0594 24.6516C89.0043 24.7926 90.9959 24.5733 92.8151 25.5287C93.113 25.6853 93.3952 25.6853 93.3641 25.3094C93.2387 23.9938 93.4739 22.7095 93.7718 21.4409C93.7718 21.4096 93.7718 21.394 93.7718 21.3626C93.7406 21.0651 93.5837 20.8928 93.3014 21.0651C92.1095 21.7698 90.8546 21.394 89.6156 21.3156C88.4709 21.2373 87.279 20.8614 86.197 21.1747C85.1145 21.4879 84.1423 21.6602 83.1229 21.0807C82.8877 20.9554 82.5583 20.9867 82.276 20.9398C81.6487 20.8458 81.3664 21.0024 81.6332 21.6915C81.8683 22.271 81.9626 22.8975 81.9155 23.5396C81.8212 24.7299 81.6803 25.9202 81.6016 27.1261C81.5545 27.9249 81.3193 28.614 80.6294 29.0682C80.3 29.2875 80.2373 29.5067 80.5351 29.82C81.0059 30.3212 81.1468 30.9633 81.1153 31.6367C81.0686 32.4668 81.037 33.3125 80.9117 34.127C80.6765 35.5992 80.9272 37.1808 80.0804 38.5434C79.8923 38.8569 80.1431 38.9665 80.3782 39.029C81.1784 39.2326 81.9781 39.3422 82.7152 38.841C82.9504 38.6844 83.17 38.5904 83.4208 38.8099C84.2365 39.5302 85.2403 39.6242 86.2596 39.7338C88.2513 39.9529 90.29 39.8593 92.2193 40.5011C92.6114 40.6266 92.6897 40.2976 92.6582 40.0629C92.5172 39.0135 92.5799 37.9796 92.9876 36.9931C93.0191 36.9304 93.0032 36.8364 93.0032 36.7581C93.0191 36.3509 92.8937 36.1473 92.4545 36.3509C91.9526 36.6015 91.4351 36.6485 90.7608 36.6015ZM28.4358 42.3179C30.6157 42.0987 32.9212 41.7071 35.2423 41.347C35.6343 41.2844 36.0264 41.1904 36.4028 41.3314C37.1084 41.6131 37.2182 41.0964 36.9831 40.7362C36.3401 39.7494 36.5753 38.7473 36.7165 37.7135C36.7322 37.635 36.7165 37.5569 36.7008 37.4784C36.6694 37.3063 36.7008 37.0713 36.5126 36.9931C36.293 36.8834 36.1833 37.1027 36.0735 37.2278C35.7127 37.6195 35.2736 37.776 34.7561 37.8545C33.0466 38.1207 31.3528 38.4183 29.6434 38.6844C28.7651 38.8254 28.4358 38.6063 28.2633 37.729C28.0907 36.8364 27.981 35.928 27.8398 35.0197C27.7457 34.3776 27.7771 33.7667 28.2476 33.2656C28.4515 33.0463 28.4515 32.8584 28.1848 32.6861C27.4634 32.2319 27.2909 31.4958 27.1654 30.744C26.8988 29.0369 26.6636 27.3454 26.397 25.6383C26.3499 25.2937 26.3656 24.9648 26.4911 24.6359C26.7734 23.8685 26.6636 23.7275 25.8794 23.8685C25.5814 23.9312 25.2521 24.0094 25.0012 24.1818C24.5463 24.5106 24.1386 24.6359 23.574 24.4167C23.0408 24.2131 22.4448 24.3384 21.8802 24.5106C21.5509 24.6046 21.4411 24.7926 21.6763 25.0901C21.9743 25.466 22.1625 25.9045 22.2409 26.3587C22.5232 28.1912 22.8055 30.0236 23.0721 31.856C23.1506 32.4355 23.0721 33.015 22.6644 33.4848C22.4448 33.7511 22.4134 33.9547 22.7271 34.1896C23.3701 34.6438 23.621 35.3172 23.7308 36.069C23.9347 37.5099 24.17 38.9509 24.3895 40.4075C24.4679 40.9712 24.5463 41.5505 24.4679 42.1143C24.3425 43.0856 24.4209 43.1481 25.3462 42.8035C25.4717 42.7565 25.5971 42.7095 25.7069 42.6469C26.3656 42.2398 26.9929 41.6446 27.8398 42.3179C27.9496 42.3808 28.1378 42.3179 28.4358 42.3179ZM33.1407 4.94912C32.3409 4.9178 31.494 5.0274 30.6628 5.278C27.7457 6.15505 26.6793 9.33441 28.4515 11.7933C30.4118 14.5028 34.5679 15.1762 37.3595 13.2185C39.9628 11.3861 39.9944 9.19345 38.081 6.81286C36.8263 5.278 35.0854 4.90214 33.1407 4.94912ZM44.3541 40.376C44.9503 40.2976 45.3891 40.2505 45.8283 40.1724C46.0167 40.141 46.299 40.141 46.3146 39.8748C46.3302 39.6557 46.0635 39.6398 45.9225 39.5617C44.9503 39.0916 44.3857 38.3868 44.323 37.2593C44.2288 35.7558 44.0407 34.2523 43.8838 32.7331C43.8211 32.0909 43.8051 31.4801 44.2915 30.9633C44.4639 30.7753 44.4795 30.5874 44.2599 30.4308C43.5855 29.9139 43.5228 29.1622 43.4446 28.3947C43.3348 27.2201 43.2721 26.0455 43.084 24.8865C42.8956 23.6492 43.1934 22.6626 44.3386 22.0361C44.4484 21.9734 44.6053 21.9108 44.5893 21.7542C44.5737 21.5662 44.3857 21.5349 44.2288 21.5193C43.2094 21.394 42.19 21.3783 41.2804 21.9578C40.9666 22.1457 40.6999 22.2397 40.3394 22.0987C39.4138 21.7228 38.4887 21.9108 37.5791 22.1614C37.3751 22.224 37.1084 22.271 37.0929 22.4903C37.0615 22.8192 37.4066 22.7879 37.5947 22.8661C38.5358 23.1794 38.959 23.8528 39.0533 24.8082C39.1786 26.2647 39.32 27.7213 39.4609 29.1778C39.5236 29.7886 39.4769 30.3838 39.1004 30.9006C38.9119 31.1512 38.9119 31.3705 39.1946 31.5584C39.7121 31.903 39.7903 32.4511 39.853 32.9993C40.0099 34.4715 40.1197 35.9594 40.3078 37.4314C40.4647 38.6374 40.2922 39.6713 39.1475 40.3446C39.0377 40.4075 38.8964 40.4856 38.9119 40.6266C38.9435 40.8147 39.1315 40.8302 39.2729 40.8617C39.9473 40.9868 40.7159 41.0964 41.2645 40.7517C42.3154 40.094 43.3348 39.8748 44.3541 40.376Z" fill="white"/>
</svg>
