<svg width="310" height="87" viewBox="0 0 310 87" fill="none" xmlns="http://www.w3.org/2000/svg">
<path d="M115.327 28.7822H103.595V6.58539H114.852C116.923 6.58539 118.615 7.07161 119.925 8.04404C121.257 8.99534 121.923 10.4011 121.923 12.2614C121.923 13.3396 121.627 14.238 121.035 14.9568C120.422 15.6967 119.83 16.204 119.259 16.4788C120.232 16.6691 121.172 17.3033 122.081 18.3814C123.012 19.4384 123.477 20.7597 123.477 22.3451C123.477 24.2689 122.726 25.8226 121.225 27.0065C119.724 28.1903 117.758 28.7822 115.327 28.7822ZM110.412 19.6181V23.2964H113.995C114.609 23.2964 115.095 23.1379 115.454 22.8208C115.835 22.4826 116.025 22.0386 116.025 21.489C116.025 20.9393 115.835 20.4954 115.454 20.1572C115.074 19.7978 114.587 19.6181 113.995 19.6181H110.412ZM110.412 11.8809V14.8616H113.869C114.334 14.8616 114.714 14.7242 115.01 14.4494C115.327 14.1746 115.486 13.8364 115.486 13.4347C115.486 12.9696 115.327 12.5997 115.01 12.3249C114.714 12.0289 114.334 11.8809 113.869 11.8809H110.412ZM133.287 21.5207C134.217 22.5143 135.391 23.0111 136.807 23.0111C138.223 23.0111 139.397 22.5143 140.327 21.5207C141.257 20.4848 141.722 19.2059 141.722 17.6838C141.722 16.1406 141.257 14.8722 140.327 13.8786C139.418 12.8639 138.244 12.3566 136.807 12.3566C135.369 12.3566 134.196 12.8639 133.287 13.8786C132.357 14.8722 131.892 16.1406 131.892 17.6838C131.892 19.2059 132.357 20.4848 133.287 21.5207ZM128.277 25.8332C126.036 23.5924 124.916 20.8759 124.916 17.6838C124.916 14.4917 126.036 11.7752 128.277 9.5344C130.539 7.27244 133.382 6.14146 136.807 6.14146C140.21 6.14146 143.043 7.27244 145.305 9.5344C147.546 11.7752 148.666 14.4917 148.666 17.6838C148.666 20.8971 147.546 23.6241 145.305 25.8649C143.064 28.1058 140.232 29.2262 136.807 29.2262C133.382 29.2262 130.539 28.0952 128.277 25.8332ZM148.876 12.4517V6.58539H168.377V12.4517H162.004V28.7822H155.186V12.4517H148.876ZM115.676 60.2262C112.04 60.2262 109.006 59.1586 106.575 57.0235C104.165 54.8672 102.96 52.0873 102.96 48.6838C102.96 45.2803 104.155 42.511 106.544 40.3759C108.911 38.2196 111.934 37.1415 115.613 37.1415C117.811 37.1415 119.682 37.5325 121.225 38.3147V44.7518C119.428 43.7794 117.621 43.2932 115.803 43.2932C114.112 43.2932 112.717 43.8111 111.617 44.8469C110.518 45.8616 109.968 47.1406 109.968 48.6838C109.968 50.2693 110.539 51.5694 111.681 52.5841C112.843 53.5777 114.302 54.0745 116.057 54.0745C118.213 54.0745 120.041 53.546 121.542 52.489V59.0212C119.999 59.8245 118.044 60.2262 115.676 60.2262ZM131.925 52.5207C132.855 53.5143 134.028 54.0111 135.444 54.0111C136.861 54.0111 138.034 53.5143 138.964 52.5207C139.894 51.4848 140.359 50.2059 140.359 48.6838C140.359 47.1406 139.894 45.8722 138.964 44.8786C138.055 43.8639 136.882 43.3566 135.444 43.3566C134.007 43.3566 132.834 43.8639 131.925 44.8786C130.994 45.8722 130.529 47.1406 130.529 48.6838C130.529 50.2059 130.994 51.4848 131.925 52.5207ZM126.914 56.8332C124.674 54.5924 123.553 51.8759 123.553 48.6838C123.553 45.4917 124.674 42.7752 126.914 40.5344C129.176 38.2724 132.02 37.1415 135.444 37.1415C138.848 37.1415 141.681 38.2724 143.943 40.5344C146.183 42.7752 147.304 45.4917 147.304 48.6838C147.304 51.8971 146.183 54.6241 143.943 56.8649C141.702 59.1058 138.869 60.2262 135.444 60.2262C132.02 60.2262 129.176 59.0952 126.914 56.8332ZM156.671 59.7822H150.075V37.5854H156.83L161.681 45.4811L166.565 37.5854H173.287V59.7822H166.755V47.352L163.616 52.6475H159.937L156.671 47.352V59.7822ZM183.24 59.7822H176.645V37.5854H183.399L188.251 45.4811L193.134 37.5854H199.856V59.7822H193.324V47.352L190.185 52.6475H186.507L183.24 47.352V59.7822ZM220.813 59.7822H203.214V37.5854H220.623V43.4517H210.032V45.4177H218.34V50.8084H210.032V53.9159H220.813V59.7822ZM238.372 51.0938L244.999 59.7822H237.04L231.142 51.8548H230.191V59.7822H223.373V37.5854H234.091C236.628 37.5854 238.647 38.2619 240.148 39.6148C241.67 40.9466 242.431 42.6484 242.431 44.7201C242.431 46.1153 242.072 47.3731 241.353 48.4936C240.634 49.5928 239.64 50.4596 238.372 51.0938ZM230.191 46.8764H233.298C233.933 46.8764 234.44 46.7178 234.821 46.4007C235.222 46.0625 235.423 45.6185 235.423 45.0689C235.423 44.5193 235.222 44.0859 234.821 43.7688C234.44 43.4517 233.933 43.2932 233.298 43.2932H230.191V46.8764ZM257.813 60.2262C254.177 60.2262 251.143 59.1586 248.712 57.0235C246.302 54.8672 245.097 52.0873 245.097 48.6838C245.097 45.2803 246.291 42.511 248.68 40.3759C251.048 38.2196 254.071 37.1415 257.749 37.1415C259.948 37.1415 261.819 37.5325 263.362 38.3147V44.7518C261.565 43.7794 259.757 43.2932 257.939 43.2932C256.248 43.2932 254.853 43.8111 253.754 44.8469C252.654 45.8616 252.105 47.1406 252.105 48.6838C252.105 50.2693 252.676 51.5694 253.817 52.5841C254.98 53.5777 256.439 54.0745 258.193 54.0745C260.349 54.0745 262.178 53.546 263.679 52.489V59.0212C262.136 59.8245 260.18 60.2262 257.813 60.2262ZM284.233 59.7822H266.634V37.5854H284.042V43.4517H273.451V45.4177H281.759V50.8084H273.451V53.9159H284.233V59.7822Z" fill="#222222"/>
<path d="M103.117 66.4177H110.425C112.256 66.4177 113.708 66.9019 114.782 67.8703C115.887 68.8386 116.439 70.0793 116.439 71.5923C116.439 73.1054 115.887 74.3461 114.782 75.3144C113.708 76.2828 112.256 76.7669 110.425 76.7669H107.996V82.3047H103.117V66.4177ZM107.996 73.2264H109.767C110.266 73.2264 110.667 73.0978 110.97 72.8406C111.287 72.5683 111.446 72.2203 111.446 71.7966C111.446 71.3729 111.287 71.0325 110.97 70.7753C110.652 70.5181 110.251 70.3895 109.767 70.3895H107.996V73.2264ZM121.35 82.5997C119.005 82.5997 117.832 81.412 117.832 79.0365V66.4177H122.598V77.9698C122.598 78.1816 122.659 78.3405 122.78 78.4464C122.901 78.5523 123.044 78.6053 123.211 78.6053C123.408 78.6053 123.597 78.5675 123.778 78.4918V82.1458C123.143 82.4484 122.333 82.5997 121.35 82.5997ZM137.273 78.8096C137.515 78.8096 137.734 78.7415 137.931 78.6053V81.8962C137.371 82.3652 136.584 82.5997 135.571 82.5997C134.89 82.5997 134.262 82.4484 133.687 82.1458C133.112 81.8432 132.726 81.4801 132.529 81.0564C132.212 81.5103 131.743 81.881 131.122 82.1685C130.502 82.456 129.814 82.5997 129.057 82.5997C127.756 82.5997 126.734 82.2366 125.993 81.5103C125.237 80.7538 124.858 79.8233 124.858 78.7188C124.858 77.4781 125.312 76.5476 126.22 75.9272C127.158 75.3069 128.202 74.9967 129.352 74.9967C130.366 74.9967 131.243 75.2085 131.985 75.6322C131.985 74.4671 131.206 73.8846 129.647 73.8846C128.376 73.8846 127.256 74.1343 126.288 74.6336V71.0703C127.544 70.5559 129.034 70.2987 130.759 70.2987C132.514 70.2987 133.944 70.745 135.049 71.6377C136.138 72.5153 136.683 73.6803 136.683 75.1329V78.2649C136.683 78.628 136.879 78.8096 137.273 78.8096ZM132.053 78.923V77.6975C131.735 77.4251 131.342 77.2889 130.873 77.2889C130.464 77.2889 130.124 77.3873 129.851 77.584C129.594 77.7807 129.466 78.0606 129.466 78.4237C129.466 78.7717 129.587 79.0516 129.829 79.2635C130.071 79.4753 130.381 79.5812 130.759 79.5812C131.364 79.5812 131.796 79.3618 132.053 78.923ZM140.105 78.8096V74.3158H138.267V70.5937H140.105V67.7795H144.871V70.5937H147.527V74.3158H144.871V77.3343C144.871 77.758 144.962 78.0682 145.144 78.2649C145.325 78.4464 145.635 78.5372 146.074 78.5372C146.589 78.5372 147.088 78.4086 147.572 78.1514V81.8735C146.77 82.3576 145.719 82.5997 144.417 82.5997C143.131 82.5997 142.087 82.2669 141.285 81.6011C140.499 80.9354 140.105 80.0049 140.105 78.8096ZM155.067 74.3158V82.3047H150.278V74.3158H148.44V70.5937H150.278V70.276C150.278 69.005 150.687 67.9913 151.504 67.2348C152.321 66.4783 153.486 66.1 154.999 66.1C156.24 66.1 157.337 66.2664 158.29 66.5993V69.754C157.685 69.5573 157.079 69.4589 156.474 69.4589C155.536 69.4589 155.067 69.8372 155.067 70.5937H158.29V74.3158H155.067ZM163.693 76.4492C163.693 77.0696 163.882 77.5764 164.26 77.9698C164.638 78.3632 165.123 78.5599 165.713 78.5599C166.303 78.5599 166.787 78.3632 167.165 77.9698C167.543 77.5764 167.733 77.0696 167.733 76.4492C167.733 75.8289 167.543 75.3296 167.165 74.9513C166.787 74.5428 166.303 74.3385 165.713 74.3385C165.123 74.3385 164.638 74.5428 164.26 74.9513C163.882 75.3296 163.693 75.8289 163.693 76.4492ZM165.713 82.5997C163.806 82.5997 162.21 82.0172 160.924 80.8522C159.668 79.6871 159.04 78.2195 159.04 76.4492C159.04 74.6789 159.668 73.2113 160.924 72.0463C162.21 70.8812 163.806 70.2987 165.713 70.2987C167.649 70.2987 169.246 70.8812 170.501 72.0463C171.772 73.1962 172.408 74.6638 172.408 76.4492C172.408 78.2346 171.772 79.7023 170.501 80.8522C169.246 82.0172 167.649 82.5997 165.713 82.5997ZM178.717 82.3047H173.951V70.5937H178.717V72.4548C178.944 71.9706 179.405 71.494 180.101 71.0249C180.812 70.5408 181.569 70.2987 182.371 70.2987C182.628 70.2987 182.84 70.3214 183.006 70.3668V74.8605C182.492 74.7395 182.015 74.6789 181.576 74.6789C180.305 74.6789 179.352 75.0194 178.717 75.7003V82.3047ZM189.444 82.3047H184.678V70.5937H189.444V72.1143C189.731 71.6302 190.193 71.2065 190.828 70.8434C191.464 70.4803 192.13 70.2987 192.826 70.2987C194.293 70.2987 195.337 70.9266 195.958 72.1824C196.275 71.6377 196.775 71.1914 197.455 70.8434C198.151 70.4803 198.885 70.2987 199.657 70.2987C200.792 70.2987 201.76 70.6996 202.562 71.5016C203.349 72.2883 203.742 73.4534 203.742 74.9967V82.3047H198.953V75.8818C198.953 74.9286 198.605 74.452 197.909 74.452C197.35 74.452 196.918 74.6789 196.616 75.1329V82.3047H191.827V75.8818C191.827 74.9286 191.479 74.452 190.783 74.452C190.238 74.452 189.792 74.6941 189.444 75.1783V82.3047Z" fill="#4253FF"/>
<rect width="87" height="87" rx="30.2609" fill="#4253FF"/>
<g filter="url(#filter0_d)">
<path d="M33.5129 26.4438C34.6316 25.4494 35.9751 24.7353 37.2061 23.8838C38.5006 22.9884 39.8417 22.2152 41.2294 21.5642C43.2972 20.5807 45.3272 19.8746 47.3194 19.4459C49.3368 18.992 51.2407 18.8281 53.0312 18.9542C54.8468 19.0551 56.4355 19.4333 57.7972 20.089C59.159 20.7194 60.2181 21.6399 60.9746 22.8503C61.7564 24.0607 62.1094 25.5359 62.0338 27.2759C61.9329 29.1925 61.5294 30.9325 60.8233 32.4959C60.1425 34.0342 59.3103 35.4212 58.3268 36.6568C57.3685 37.8672 56.322 38.9264 55.1872 39.8342C54.0525 40.742 52.9933 41.4985 52.0099 42.1038C51.0264 42.6838 50.1816 43.1377 49.4755 43.4655C49.2836 43.5508 49.1148 43.625 48.969 43.6883C48.8733 43.7298 48.9173 43.9572 49.0216 43.9572C49.4755 43.9572 50.0303 44.0077 50.6859 44.1085C51.3668 44.1842 52.0855 44.3607 52.842 44.6381C53.6238 44.8903 54.3299 45.2812 54.9603 45.8107C55.6159 46.3151 56.1329 46.9833 56.5112 47.8155C56.9146 48.6477 57.0912 49.6942 57.0407 50.9551C56.9651 52.5942 56.5616 54.1072 55.8303 55.4942C55.1242 56.8559 54.2164 58.079 53.1068 59.1633C52.0225 60.2729 50.7994 61.2312 49.4377 62.0381C48.1012 62.8703 46.7646 63.5512 45.4281 64.0807C44.0916 64.6355 42.8181 65.039 41.6077 65.2912C40.4225 65.5686 39.439 65.6946 38.6572 65.6694C36.8416 65.619 35.2655 65.4172 33.929 65.0642C32.6177 64.7364 31.5081 64.3329 30.6003 63.8538C29.6925 63.3746 28.9485 62.8577 28.3685 62.3029C27.8138 61.7481 27.3725 61.2185 27.0446 60.7142C26.742 60.2351 26.5151 59.819 26.3638 59.4659C26.2125 59.1129 26.1116 58.8985 26.0612 58.8229C25.9603 58.6968 25.809 58.4572 25.6072 58.1042C25.4307 57.7764 25.2542 57.3477 25.0777 56.8181C24.9012 56.2886 24.7625 55.6959 24.6616 55.0403C24.5607 54.3594 24.5607 53.6155 24.6616 52.8085C24.712 52.3799 24.8885 52.0016 25.1912 51.6738C25.519 51.3459 25.872 51.119 26.2503 50.9929C26.6285 50.8668 26.9942 50.8542 27.3472 50.9551C27.7003 51.0559 27.9399 51.3081 28.0659 51.7116C28.192 52.1151 28.2677 52.632 28.2929 53.2625C28.3433 53.8677 28.3685 54.4981 28.3685 55.1538C28.3938 55.7842 28.3938 56.3768 28.3685 56.9316C28.3685 57.4864 28.3938 57.9025 28.4442 58.1799C28.4694 58.3816 28.5072 58.6464 28.5577 58.9742C28.6333 59.3272 28.772 59.7055 28.9738 60.109C29.2007 60.5377 29.5159 60.9664 29.9194 61.3951C30.3229 61.8238 30.8777 62.2146 31.5838 62.5677C32.2899 62.9207 33.1599 63.2107 34.1938 63.4377C35.2529 63.6899 36.539 63.8285 38.052 63.8538C39.3129 63.879 40.5864 63.7025 41.8725 63.3242C43.1585 62.9712 44.3816 62.4794 45.5416 61.849C46.7268 61.2185 47.8364 60.4872 48.8703 59.6551C49.9042 58.8229 50.8246 57.9403 51.6316 57.0072C52.4385 56.0994 53.0942 55.179 53.5985 54.2459C54.1029 53.2877 54.4181 52.3672 54.5442 51.4846C54.7207 50.2742 54.582 49.2781 54.1281 48.4964C53.6742 47.6894 53.0185 47.059 52.1612 46.6051C51.3038 46.1512 50.2951 45.8359 49.1351 45.6594C47.9751 45.4577 46.752 45.3694 45.4659 45.3946C44.2051 45.3946 42.9442 45.4577 41.6833 45.5838C39.5112 45.801 37.6715 47.2551 36.9189 49.3041C36.8235 49.5638 36.7347 49.8115 36.6525 50.0472C36.2742 51.1316 36.0725 51.7368 36.0472 51.8629C35.9968 52.1403 35.8707 52.3799 35.669 52.5816C35.4672 52.7581 35.2529 52.8716 35.0259 52.922C34.799 52.9472 34.572 52.8716 34.3451 52.6951C34.1181 52.5186 33.9668 52.2033 33.8912 51.7494C33.8155 51.2703 33.9164 50.5768 34.1938 49.669C34.3683 49.131 34.5763 48.5594 34.8178 47.9543C35.0515 47.369 34.5463 46.7432 33.929 46.8699C33.1977 47.0212 32.7059 46.8951 32.4538 46.4916C32.2016 46.0881 32.1638 45.6468 32.3403 45.1677C32.542 44.6633 32.9329 44.2346 33.5129 43.8816C33.995 43.5882 34.599 43.4951 35.325 43.6023C35.6175 43.6455 35.7149 43.7254 36.0106 43.7299C36.3606 43.7353 36.9006 43.5022 37.061 43.191C37.5838 42.1762 38.1159 41.1708 38.6572 40.1746C39.2877 38.9894 39.8677 37.9177 40.3972 36.9594C40.952 36.0012 41.4059 35.2068 41.759 34.5764C42.112 33.9459 42.3012 33.5803 42.3264 33.4794C42.3768 33.3029 42.4777 33.0255 42.629 32.6472C42.8055 32.269 43.0325 31.8907 43.3099 31.5125C43.5872 31.109 43.9025 30.7559 44.2555 30.4533C44.6338 30.1255 45.0499 29.9364 45.5038 29.8859C46.2351 29.8859 46.7016 30.012 46.9033 30.2642C47.1051 30.5164 47.1681 30.8064 47.0925 31.1342C47.042 31.462 46.9033 31.7899 46.6764 32.1177C46.4746 32.4203 46.3107 32.6346 46.1846 32.7607C45.5038 33.4164 44.8481 34.1603 44.2177 34.9925C43.5872 35.8246 42.982 36.7072 42.402 37.6403C41.8472 38.5733 41.3051 39.5316 40.7755 40.5151C40.1405 41.7534 41.1727 43.1416 42.5367 42.8656C42.667 42.8392 42.7986 42.8122 42.9316 42.7846C44.2933 42.482 45.6803 42.0659 47.0925 41.5364C48.5299 40.9816 49.942 40.3007 51.329 39.4938C52.7412 38.6868 54.0146 37.7033 55.1494 36.5433C56.3094 35.3833 57.2929 34.0342 58.0999 32.4959C58.9068 30.9325 59.4238 29.142 59.6507 27.1246C59.802 25.8385 59.512 24.7542 58.7807 23.8716C58.0746 22.9638 57.0912 22.2703 55.8303 21.7912C54.5946 21.312 53.1572 21.0472 51.5181 20.9968C49.9042 20.9464 48.2651 21.1355 46.6007 21.5642C44.9364 21.9677 43.3225 22.6233 41.759 23.5312C40.2207 24.439 38.8968 25.599 37.7872 27.0112C36.6272 28.5242 35.6185 29.4825 34.7612 29.8859C33.9038 30.2642 33.2103 30.1255 32.6807 29.4699C32.479 29.2429 32.3529 28.9655 32.3025 28.6377C32.2772 28.3099 32.3529 27.9694 32.5294 27.6164C32.7312 27.2381 33.059 26.8472 33.5129 26.4438Z" fill="white"/>
<path d="M33.5129 26.4438C34.6316 25.4494 35.9751 24.7353 37.2061 23.8838C38.5006 22.9884 39.8417 22.2152 41.2294 21.5642C43.2972 20.5807 45.3272 19.8746 47.3194 19.4459C49.3368 18.992 51.2407 18.8281 53.0312 18.9542C54.8468 19.0551 56.4355 19.4333 57.7972 20.089C59.159 20.7194 60.2181 21.6399 60.9746 22.8503C61.7564 24.0607 62.1094 25.5359 62.0338 27.2759C61.9329 29.1925 61.5294 30.9325 60.8233 32.4959C60.1425 34.0342 59.3103 35.4212 58.3268 36.6568C57.3685 37.8672 56.322 38.9264 55.1872 39.8342C54.0525 40.742 52.9933 41.4985 52.0099 42.1038C51.0264 42.6838 50.1816 43.1377 49.4755 43.4655C49.2836 43.5508 49.1148 43.625 48.969 43.6883C48.8733 43.7298 48.9173 43.9572 49.0216 43.9572C49.4755 43.9572 50.0303 44.0077 50.6859 44.1085C51.3668 44.1842 52.0855 44.3607 52.842 44.6381C53.6238 44.8903 54.3299 45.2812 54.9603 45.8107C55.6159 46.3151 56.1329 46.9833 56.5112 47.8155C56.9146 48.6477 57.0912 49.6942 57.0407 50.9551C56.9651 52.5942 56.5616 54.1072 55.8303 55.4942C55.1242 56.8559 54.2164 58.079 53.1068 59.1633C52.0225 60.2729 50.7994 61.2312 49.4377 62.0381C48.1012 62.8703 46.7646 63.5512 45.4281 64.0807C44.0916 64.6355 42.8181 65.039 41.6077 65.2912C40.4225 65.5686 39.439 65.6946 38.6572 65.6694C36.8416 65.619 35.2655 65.4172 33.929 65.0642C32.6177 64.7364 31.5081 64.3329 30.6003 63.8538C29.6925 63.3746 28.9485 62.8577 28.3685 62.3029C27.8138 61.7481 27.3725 61.2185 27.0446 60.7142C26.742 60.2351 26.5151 59.819 26.3638 59.4659C26.2125 59.1129 26.1116 58.8985 26.0612 58.8229C25.9603 58.6968 25.809 58.4572 25.6072 58.1042C25.4307 57.7764 25.2542 57.3477 25.0777 56.8181C24.9012 56.2886 24.7625 55.6959 24.6616 55.0403C24.5607 54.3594 24.5607 53.6155 24.6616 52.8085C24.712 52.3799 24.8885 52.0016 25.1912 51.6738C25.519 51.3459 25.872 51.119 26.2503 50.9929C26.6285 50.8668 26.9942 50.8542 27.3472 50.9551C27.7003 51.0559 27.9399 51.3081 28.0659 51.7116C28.192 52.1151 28.2677 52.632 28.2929 53.2625C28.3433 53.8677 28.3685 54.4981 28.3685 55.1538C28.3938 55.7842 28.3938 56.3768 28.3685 56.9316C28.3685 57.4864 28.3938 57.9025 28.4442 58.1799C28.4694 58.3816 28.5072 58.6464 28.5577 58.9742C28.6333 59.3272 28.772 59.7055 28.9738 60.109C29.2007 60.5377 29.5159 60.9664 29.9194 61.3951C30.3229 61.8238 30.8777 62.2146 31.5838 62.5677C32.2899 62.9207 33.1599 63.2107 34.1938 63.4377C35.2529 63.6899 36.539 63.8285 38.052 63.8538C39.3129 63.879 40.5864 63.7025 41.8725 63.3242C43.1585 62.9712 44.3816 62.4794 45.5416 61.849C46.7268 61.2185 47.8364 60.4872 48.8703 59.6551C49.9042 58.8229 50.8246 57.9403 51.6316 57.0072C52.4385 56.0994 53.0942 55.179 53.5985 54.2459C54.1029 53.2877 54.4181 52.3672 54.5442 51.4846C54.7207 50.2742 54.582 49.2781 54.1281 48.4964C53.6742 47.6894 53.0185 47.059 52.1612 46.6051C51.3038 46.1512 50.2951 45.8359 49.1351 45.6594C47.9751 45.4577 46.752 45.3694 45.4659 45.3946C44.2051 45.3946 42.9442 45.4577 41.6833 45.5838C39.5112 45.801 37.6715 47.2551 36.9189 49.3041C36.8235 49.5638 36.7347 49.8115 36.6525 50.0472C36.2742 51.1316 36.0725 51.7368 36.0472 51.8629C35.9968 52.1403 35.8707 52.3799 35.669 52.5816C35.4672 52.7581 35.2529 52.8716 35.0259 52.922C34.799 52.9472 34.572 52.8716 34.3451 52.6951C34.1181 52.5186 33.9668 52.2033 33.8912 51.7494C33.8155 51.2703 33.9164 50.5768 34.1938 49.669C34.3683 49.131 34.5763 48.5594 34.8178 47.9543C35.0515 47.369 34.5463 46.7432 33.929 46.8699C33.1977 47.0212 32.7059 46.8951 32.4538 46.4916C32.2016 46.0881 32.1638 45.6468 32.3403 45.1677C32.542 44.6633 32.9329 44.2346 33.5129 43.8816C33.995 43.5882 34.599 43.4951 35.325 43.6023C35.6175 43.6455 35.7149 43.7254 36.0106 43.7299C36.3606 43.7353 36.9006 43.5022 37.061 43.191C37.5838 42.1762 38.1159 41.1708 38.6572 40.1746C39.2877 38.9894 39.8677 37.9177 40.3972 36.9594C40.952 36.0012 41.4059 35.2068 41.759 34.5764C42.112 33.9459 42.3012 33.5803 42.3264 33.4794C42.3768 33.3029 42.4777 33.0255 42.629 32.6472C42.8055 32.269 43.0325 31.8907 43.3099 31.5125C43.5872 31.109 43.9025 30.7559 44.2555 30.4533C44.6338 30.1255 45.0499 29.9364 45.5038 29.8859C46.2351 29.8859 46.7016 30.012 46.9033 30.2642C47.1051 30.5164 47.1681 30.8064 47.0925 31.1342C47.042 31.462 46.9033 31.7899 46.6764 32.1177C46.4746 32.4203 46.3107 32.6346 46.1846 32.7607C45.5038 33.4164 44.8481 34.1603 44.2177 34.9925C43.5872 35.8246 42.982 36.7072 42.402 37.6403C41.8472 38.5733 41.3051 39.5316 40.7755 40.5151C40.1405 41.7534 41.1727 43.1416 42.5367 42.8656C42.667 42.8392 42.7986 42.8122 42.9316 42.7846C44.2933 42.482 45.6803 42.0659 47.0925 41.5364C48.5299 40.9816 49.942 40.3007 51.329 39.4938C52.7412 38.6868 54.0146 37.7033 55.1494 36.5433C56.3094 35.3833 57.2929 34.0342 58.0999 32.4959C58.9068 30.9325 59.4238 29.142 59.6507 27.1246C59.802 25.8385 59.512 24.7542 58.7807 23.8716C58.0746 22.9638 57.0912 22.2703 55.8303 21.7912C54.5946 21.312 53.1572 21.0472 51.5181 20.9968C49.9042 20.9464 48.2651 21.1355 46.6007 21.5642C44.9364 21.9677 43.3225 22.6233 41.759 23.5312C40.2207 24.439 38.8968 25.599 37.7872 27.0112C36.6272 28.5242 35.6185 29.4825 34.7612 29.8859C33.9038 30.2642 33.2103 30.1255 32.6807 29.4699C32.479 29.2429 32.3529 28.9655 32.3025 28.6377C32.2772 28.3099 32.3529 27.9694 32.5294 27.6164C32.7312 27.2381 33.059 26.8472 33.5129 26.4438Z" stroke="white" stroke-width="3.78261" stroke-linecap="round" stroke-linejoin="round"/>
</g>
<defs>
<filter id="filter0_d" x="18.912" y="17.0218" width="48.8056" height="58.1073" filterUnits="userSpaceOnUse" color-interpolation-filters="sRGB">
<feFlood flood-opacity="0" result="BackgroundImageFix"/>
<feColorMatrix in="SourceAlpha" type="matrix" values="0 0 0 0 0 0 0 0 0 0 0 0 0 0 0 0 0 0 127 0"/>
<feOffset dy="3.78261"/>
<feGaussianBlur stdDeviation="1.8913"/>
<feColorMatrix type="matrix" values="0 0 0 0 0 0 0 0 0 0 0 0 0 0 0 0 0 0 0.25 0"/>
<feBlend mode="normal" in2="BackgroundImageFix" result="effect1_dropShadow"/>
<feBlend mode="normal" in="SourceGraphic" in2="effect1_dropShadow" result="shape"/>
</filter>
</defs>
</svg>
